<svg preserveAspectRatio="xMinYMin meet" style="max-width: 585px;" viewBox="0 0 585 207" version="1.1" xmlns="http://www.w3.org/2000/svg" xmlns:xlink="http://www.w3.org/1999/xlink">
<g id="Canvas" fill="none">
<g id="insurance-unbroken-hearo-header" clip-path="url(#clip0)">
<g id="Insurance. Unbroken.">
<path d="M 40.56 0.599998L 40.56 0L 0 0L 0 0.599998C 4.92 2.64 7.68 4.8 7.68 13.08L 7.68 70.44C 7.68 78.84 4.68 81.48 0 83.4L 0 84L 40.56 84L 40.56 83.4C 35.88 81.48 32.88 76.44 32.88 70.44L 32.88 13.08C 32.88 7.2 35.64 2.64 40.56 0.599998Z" fill="white"/>
<path d="M 110.093 74.4L 110.093 36.6C 110.093 25.44 103.613 19.2 92.6925 19.2C 84.6525 19.2 78.5325 23.04 75.8925 30.12L 75.8925 19.2L 47.2125 27.36L 47.2125 27.96C 51.5325 29.28 53.0925 31.8 53.0925 37.56L 53.0925 74.4C 53.0925 79.32 50.5725 81.96 47.2125 83.4L 47.2125 84L 79.3725 84L 79.3725 83.4C 76.8525 82.2 75.8925 79.92 75.8925 75.6L 75.8925 32.28C 77.2125 30.48 79.0125 29.28 81.7725 29.28C 85.2525 29.28 87.2925 31.68 87.2925 36.6L 87.2925 75.6C 87.2925 79.92 86.3325 82.2 83.8125 83.4L 83.8125 84L 115.973 84L 115.973 83.4C 112.613 81.96 110.093 79.32 110.093 74.4Z" fill="white"/>
<path d="M 144.312 85.8C 162.312 85.8 170.832 73.44 170.832 61.32C 170.832 54.12 167.592 48.12 159.672 44.4L 142.032 36.24C 138.552 34.56 136.992 32.04 136.992 29.52C 136.992 26.52 139.152 24 144.912 24C 150.672 24 158.952 26.88 163.752 39.96L 164.472 40.08L 171.912 26.16C 165.432 21.36 157.392 19.2 149.712 19.2C 130.632 19.2 122.832 31.56 122.832 41.4C 122.832 48.6 125.952 55.08 134.592 59.16L 153.192 67.8C 156.072 69 157.392 71.16 157.392 73.8C 157.392 76.8 155.472 80.52 148.752 80.52C 139.512 80.52 131.112 71.76 128.112 61.2L 127.392 61.08L 120.192 77.28C 126.432 82.32 135.072 85.8 144.312 85.8Z" fill="white"/>
<path d="M 237.185 74.4L 237.185 19.2L 210.305 23.52L 210.305 24.12C 213.305 25.44 214.385 28.2 214.385 34.2L 214.385 71.28C 213.545 72.72 212.105 73.8 209.825 73.8C 206.225 73.8 204.185 71.52 204.185 66.96L 204.185 19.2L 175.505 23.88L 175.505 24.48C 179.825 25.8 181.385 28.32 181.385 34.32L 181.385 66.72C 181.385 80.64 188.345 85.8 198.065 85.8C 206.585 85.8 212.225 80.04 214.385 73.2L 214.385 84L 243.065 84L 243.065 83.4C 239.705 81.96 237.185 80.52 237.185 74.4Z" fill="white"/>
<path d="M 295.823 19.2C 285.503 19.2 277.703 27.12 276.863 48.72L 276.143 48.72L 276.143 19.2L 248.423 27.48L 248.423 28.08C 252.503 29.4 254.303 32.64 254.303 39.12L 254.303 74.4C 254.303 79.32 251.783 81.96 248.423 83.4L 248.423 84L 285.383 84L 285.383 83.4C 280.943 82.44 277.103 80.28 277.103 74.4L 277.103 58.56C 277.103 43.08 282.263 39.48 289.943 39.48C 293.663 39.48 295.463 39.96 297.023 40.92L 297.623 40.92L 297.623 19.2L 295.823 19.2Z" fill="white"/>
<path d="M 366.301 68.88C 365.221 72.84 362.461 73.8 360.541 73.8C 358.141 73.8 355.981 72 355.981 67.8L 355.981 46.68C 355.981 30.6 348.781 19.2 331.141 19.2C 315.781 19.2 306.181 28.2 304.141 42.84L 304.981 43.08C 308.101 33.96 313.141 31.08 320.581 31.08C 330.541 31.08 333.181 37.68 333.181 45.24L 333.181 47.28L 325.261 48.96C 310.981 51.96 301.861 59.4 301.861 70.32C 301.861 78.36 307.621 85.8 317.581 85.8C 326.101 85.8 331.621 81.12 333.541 74.88L 333.901 75C 335.101 81.6 340.021 85.8 348.421 85.8C 357.781 85.8 365.461 80.4 367.501 69L 366.301 68.88ZM 329.821 73.8C 325.381 73.8 322.381 70.08 322.381 63.96C 322.381 57.6 324.661 52.56 331.501 51.24L 333.181 50.88L 333.181 72.48C 332.461 73.44 331.381 73.8 329.821 73.8Z" fill="white"/>
<path d="M 432.827 74.4L 432.827 36.6C 432.827 25.44 426.347 19.2 415.427 19.2C 407.387 19.2 401.267 23.04 398.627 30.12L 398.627 19.2L 369.947 27.36L 369.947 27.96C 374.267 29.28 375.827 31.8 375.827 37.56L 375.827 74.4C 375.827 79.32 373.307 81.96 369.947 83.4L 369.947 84L 402.107 84L 402.107 83.4C 399.587 82.2 398.627 79.92 398.627 75.6L 398.627 32.28C 399.947 30.48 401.747 29.28 404.507 29.28C 407.987 29.28 410.027 31.68 410.027 36.6L 410.027 75.6C 410.027 79.92 409.067 82.2 406.547 83.4L 406.547 84L 438.707 84L 438.707 83.4C 435.347 81.96 432.827 79.32 432.827 74.4Z" fill="white"/>
<path d="M 470.329 85.8C 484.009 85.8 494.209 75.6 495.169 60.72L 494.449 60.48C 491.449 65.76 486.649 67.8 479.929 67.8C 465.529 67.8 459.289 54.84 459.289 44.64C 459.289 35.04 463.369 27.6 473.089 27.6C 480.049 27.6 485.809 33 486.529 45.96L 487.129 46.08L 496.249 24.36C 490.609 21.24 482.929 19.2 474.409 19.2C 455.449 19.2 442.369 33.84 442.369 53.64C 442.369 72.84 453.769 85.8 470.329 85.8Z" fill="white"/>
<path d="M 538.534 67.92C 527.854 67.92 520.654 60.96 518.854 47.4L 553.414 47.4C 553.414 24.6 538.894 19.2 528.694 19.2C 512.374 19.2 500.494 33.6 500.494 53.76C 500.494 74.76 514.054 85.8 527.854 85.8C 537.454 85.8 549.934 80.28 553.174 61.8L 552.214 61.56C 548.974 66.12 544.534 67.92 538.534 67.92ZM 526.054 23.16C 530.854 23.16 533.374 27.84 533.374 43.68L 518.494 43.68C 518.374 42.6 518.374 41.52 518.374 40.32C 518.374 29.52 521.134 23.16 526.054 23.16Z" fill="white"/>
<path d="M 572.413 85.8C 578.773 85.8 584.053 80.52 584.053 74.04C 584.053 67.68 578.773 62.4 572.413 62.4C 565.933 62.4 560.653 67.68 560.653 74.04C 560.653 80.52 565.933 85.8 572.413 85.8Z" fill="white"/>
<path d="M 89.28 120L 68.52 120L 68.28 120.6C 72 122.28 74.52 124.32 74.52 129.48C 74.52 131.4 74.16 132.72 73.56 134.88L 63.72 172.32C 60 186.24 55.56 195.84 42.72 195.84C 32.28 195.84 28.2 190.2 28.2 182.04C 28.2 178.92 28.8 175.32 30.72 168.36L 39.96 133.68C 42.12 125.52 46.8 122.76 52.92 120.6L 53.16 120L 11.16 120L 10.92 120.6C 13.68 122.04 15.6 123.6 15.6 127.44C 15.6 128.4 15.48 129.6 15.12 130.8L 5.76 167.16C 4.2 173.28 3.48 178.56 3.48 182.88C 3.48 202.92 19.68 206.4 32.4 206.4C 57.36 206.4 63.12 192.36 68.4 172.32L 78.72 133.08C 80.88 124.92 84.12 122.64 89.04 120.6L 89.28 120Z" fill="white"/>
<path d="M 147.973 177.72C 143.413 183.96 140.533 185.52 139.213 185.52C 138.253 185.52 137.773 184.68 137.773 183.72C 137.773 181.44 140.533 173.04 142.813 166.92C 145.573 159.48 148.093 152.52 148.093 148.32C 148.093 141.6 144.253 139.2 139.213 139.2C 129.973 139.2 118.693 152.64 106.333 171.12L 114.973 139.2L 84.3731 147.36L 84.0131 148.56L 85.2131 148.56C 89.4131 148.56 89.0531 150.84 88.3331 153.48L 74.7731 204L 97.4531 204L 104.773 176.76C 113.893 164.04 118.093 160.2 120.493 160.2C 121.693 160.2 122.293 161.04 122.293 162.36C 122.293 164.88 120.253 171.12 117.733 177.84C 114.133 187.56 112.333 192.72 112.333 197.16C 112.333 203.52 116.533 205.8 121.213 205.8C 133.933 205.8 145.213 186.24 149.653 178.56L 147.973 177.72Z" fill="white"/>
<path d="M 199.908 139.2C 192.588 139.2 185.508 142.56 182.388 148.92L 182.388 116.4L 153.708 125.16L 153.708 125.76C 157.908 127.2 159.588 130.2 159.588 134.76L 159.588 200.64C 165.948 203.88 174.708 205.8 182.508 205.8C 203.988 205.8 220.428 191.4 220.428 166.8C 220.428 150.36 212.028 139.2 199.908 139.2ZM 185.988 201.72C 184.068 201.72 183.228 201.36 182.388 200.76L 182.388 151.08C 182.868 150 183.588 149.28 185.988 149.28C 191.388 149.28 195.828 156.36 195.828 175.44C 195.828 193.2 191.868 201.72 185.988 201.72Z" fill="white"/>
<path d="M 274.378 139.2C 264.058 139.2 256.258 147.12 255.418 168.72L 254.698 168.72L 254.698 139.2L 226.978 147.48L 226.978 148.08C 231.058 149.4 232.858 152.64 232.858 159.12L 232.858 194.4C 232.858 199.32 230.338 201.96 226.978 203.4L 226.978 204L 263.938 204L 263.938 203.4C 259.498 202.44 255.658 200.28 255.658 194.4L 255.658 178.56C 255.658 163.08 260.818 159.48 268.498 159.48C 272.218 159.48 274.018 159.96 275.578 160.92L 276.178 160.92L 276.178 139.2L 274.378 139.2Z" fill="white"/>
<path d="M 313.296 205.8C 332.376 205.8 346.176 192.24 346.176 172.44C 346.176 152.64 332.376 139.2 313.296 139.2C 294.216 139.2 280.416 152.64 280.416 172.44C 280.416 192.24 294.216 205.8 313.296 205.8ZM 313.296 201C 307.176 201 304.416 193.44 304.416 172.44C 304.416 151.44 307.176 143.88 313.296 143.88C 319.416 143.88 322.176 151.44 322.176 172.44C 322.176 193.44 319.416 201 313.296 201Z" fill="white"/>
<path d="M 350.362 204L 384.802 204L 384.802 203.4C 380.602 202.2 379.042 199.92 379.042 195.6L 379.042 116.4L 350.362 125.16L 350.362 125.76C 354.562 127.2 356.242 130.2 356.242 134.76L 356.242 194.4C 356.242 199.32 353.722 201.96 350.362 203.4L 350.362 204ZM 396.322 204L 428.602 204L 428.602 203.4C 424.642 202.32 421.883 200.28 418.883 195L 399.322 160.32L 407.122 153.84C 410.483 151.08 417.682 145.2 423.562 141.6L 423.562 141L 396.202 141L 396.202 141.6C 402.202 141.84 404.362 144.24 404.362 147.84C 404.362 150.96 402.682 153.72 397.283 157.92L 379.642 171.48L 396.322 204Z" fill="white"/>
<path d="M 463.065 187.92C 452.385 187.92 445.185 180.96 443.385 167.4L 477.945 167.4C 477.945 144.6 463.425 139.2 453.225 139.2C 436.905 139.2 425.025 153.6 425.025 173.76C 425.025 194.76 438.585 205.8 452.385 205.8C 461.985 205.8 474.465 200.28 477.705 181.8L 476.745 181.56C 473.505 186.12 469.065 187.92 463.065 187.92ZM 450.585 143.16C 455.385 143.16 457.905 147.84 457.905 163.68L 443.025 163.68C 442.905 162.6 442.905 161.52 442.905 160.32C 442.905 149.52 445.665 143.16 450.585 143.16Z" fill="white"/>
<path d="M 546.85 194.4L 546.85 156.6C 546.85 145.44 540.37 139.2 529.45 139.2C 521.41 139.2 515.29 143.04 512.65 150.12L 512.65 139.2L 483.97 147.36L 483.97 147.96C 488.29 149.28 489.85 151.8 489.85 157.56L 489.85 194.4C 489.85 199.32 487.33 201.96 483.97 203.4L 483.97 204L 516.13 204L 516.13 203.4C 513.61 202.2 512.65 199.92 512.65 195.6L 512.65 152.28C 513.97 150.48 515.77 149.28 518.53 149.28C 522.01 149.28 524.05 151.68 524.05 156.6L 524.05 195.6C 524.05 199.92 523.09 202.2 520.57 203.4L 520.57 204L 552.73 204L 552.73 203.4C 549.37 201.96 546.85 199.32 546.85 194.4Z" fill="white"/>
<path d="M 571.71 205.8C 578.07 205.8 583.35 200.52 583.35 194.04C 583.35 187.68 578.07 182.4 571.71 182.4C 565.23 182.4 559.95 187.68 559.95 194.04C 559.95 200.52 565.23 205.8 571.71 205.8Z" fill="white"/>
</g>
</g>
</g>
<defs>
<clipPath id="clip0">
<rect width="585" height="207" fill="white"/>
</clipPath>
</defs>
</svg>
