<svg width="24" height="24" viewBox="0 0 24 24" version="1.1" xmlns="http://www.w3.org/2000/svg" xmlns:xlink="http://www.w3.org/1999/xlink">
<g id="Canvas" fill="none">
<g id="icons/list_items/states/insured copy 9.1">
<g id="Oval">
<path fill-rule="evenodd" clip-rule="evenodd" d="M 12 24C 18.6274 24 24 18.6274 24 12C 24 5.37258 18.6274 0 12 0C 5.37258 0 0 5.37258 0 12C 0 18.6274 5.37258 24 12 24Z" fill="#FF8A80"/>
</g>
<g id="Combined Shape">
<path fill-rule="evenodd" clip-rule="evenodd" d="M 7.35073 0.000690534L 6.65122 0L 6.65122 6.65122L 0 6.65122L 0.000690534 7.35073L 6.64984 7.35142L 6.65053 14.0006L 7.35142 13.9999L 7.35142 7.35142L 13.9999 7.35142L 14.0006 6.65053L 7.35142 6.64984L 7.35073 0.000690534Z" transform="matrix(0.707107 0.707107 -0.707107 0.707107 11.8574 2.24121)" fill="white"/>
<path d="M 6.65122 0L 7.35073 0.000690534L 7.35142 6.64984L 14.0006 6.65053L 13.9999 7.35142L 7.35142 7.35142L 7.35142 13.9999L 6.65053 14.0006L 6.64984 7.35142L 0.000690534 7.35073L 0 6.65122L 6.65122 6.65122L 6.65122 0Z" transform="matrix(0.707107 0.707107 -0.707107 0.707107 11.8574 2.24121)" stroke="white"/>
</g>
</g>
</g>
</svg>

