<svg width="201" height="129" viewBox="0 0 201 129" version="1.1" xmlns="http://www.w3.org/2000/svg" xmlns:xlink="http://www.w3.org/1999/xlink">
<g id="Canvas" fill="none">
<g id="barncancerfonden-logo">
<path id="Fill 1" fill-rule="evenodd" clip-rule="evenodd" d="M -2.27762e-09 34.945L 0.389529 0.193961L 14.7327 -1.46798e-06C 14.7327 -1.46798e-06 15.2201 4.1729 14.4399 6.7945L 8.00036 6.40658L 7.61044 13.7837L 12.5858 13.8803L 12.6837 19.1224L 7.51218 19.4137L 7.02478 34.945L -2.27762e-09 34.945Z" transform="translate(4.17511 92.089)" fill="#004F8F"/>
<path id="Fill 3" fill-rule="evenodd" clip-rule="evenodd" d="M 13.6162 19.7054C 13.6162 19.7054 13.3234 32.422 9.90807 31.5484C 9.90807 31.5484 6.59025 31.9363 6.98095 19.4145C 6.98095 19.4145 6.88308 6.60131 10.9819 6.30959C 10.9819 6.30959 14.2015 5.8243 13.6162 19.7054ZM 34.301 2.13591L 33.7157 17.5695L 29.1295 -6.15603e-07L 21.6166 0.194349L 21.1292 12.1339C 20.5435 0.0973711 10.6883 1.26231 10.6883 1.26231C 5.2384 1.01481 2.70159 4.4332 1.64257 8.16465C -0.20916 14.6744 0.0528654 20.8707 0.0528654 20.8707C -0.824842 39.0221 9.51737 36.887 9.51737 36.887C 20.1528 38.5372 20.8359 22.0353 20.8359 22.0353L 20.4456 35.2364L 26.5927 35.2364L 26.5927 14.1721L 31.6671 36.3047L 39.2772 36.2073L 40.0582 2.42725L 34.301 2.13591Z" transform="translate(17.6836 91.0207)" fill="#004F8F"/>
<path id="Fill 4" fill-rule="evenodd" clip-rule="evenodd" d="M 7.90327 29.2181L 7.22052 9.12437C 7.22052 9.12437 13.0744 7.76586 13.2693 19.4145C 13.2693 19.4145 14.05 28.5381 7.90327 29.2181ZM 58.1529 2.81517L 51.8105 2.71819L 51.713 23.4904L 44.2975 -6.15603e-07L 36.3943 0.290943L 35.7115 27.616L 27.2705 28.199L 27.3201 19.8028L 32.4916 19.6077L 32.2962 13.7841L 27.223 13.5894L 27.223 6.60054L 35.0284 6.11524L 34.7355 -6.15603e-07L 20.0025 0.582662L 20.0025 12.7158C 18.2467 7.95944 16.5872 6.60054 13.5626 4.27105C 10.5376 1.94156 2.61786e-06 2.42686 2.61786e-06 2.42686L 0.487401 35.139C 3.31743 35.5273 11.0881 35.0471 14.05 32.9065C 19.0916 29.2654 20.2957 23.6851 20.2957 23.6851L 20.0025 34.8484L 35.5162 34.6537L 35.6133 36.0126L 42.8334 36.0615L 42.6388 19.0258C 42.6388 19.0258 42.8135 19.0091 42.9468 19.409C 42.9991 19.5634 43.1083 19.8904 43.1765 20.0933C 44.4847 24.0021 48.4923 36.4983 48.4923 36.4983L 58.4457 36.5956L 58.1529 2.81517Z" transform="translate(59.5951 90.7297)" fill="#004F8F"/>
<path id="Fill 5" fill-rule="evenodd" clip-rule="evenodd" d="M 104.119 11.8571C 104.119 11.8571 103.925 16.613 99.9228 16.0311L 100.313 6.809C 100.313 6.809 105.095 7.19731 104.119 11.8571ZM 26.4527 22.5347L 28.4038 9.9155L 29.868 22.6317L 26.4527 22.5347ZM 113.724 36.0771C 113.572 35.768 113.396 35.2613 113.199 34.8598C 113.059 34.5728 112.714 34.1693 112.556 33.8446C 110.155 28.9226 105.582 19.9135 105.582 19.9135C 111.046 17.8749 111.241 11.3714 111.241 11.3714C 112.022 -2.21801 92.9955 0.499404 92.9955 0.499404L 92.9955 28.7469L 84.6048 29.3296L 84.5073 20.9814L 89.4831 20.7871L 89.4831 14.9632L 84.312 15.0605L 84.5073 7.68299L 92.1178 7.19731L 91.8245 1.17905L 77.1885 1.8583L 77.0918 22.2434C 75.5298 22.923 70.5545 22.6317 70.5545 22.6317C 70.8465 31.756 68.018 30.6885 68.018 30.6885C 64.3099 30.8824 64.5056 19.0399 64.5056 19.0399C 64.7981 3.6059 68.018 5.15915 68.018 5.15915C 70.5545 4.9648 70.0671 11.6623 70.0671 11.6623L 76.6044 11.8571C 76.9944 9.13887 76.4087 5.74182 76.4087 5.74182C 75.4331 -0.567776 68.1155 0.0141105 68.1155 0.0141105C 64.8963 0.111092 61.8713 1.27603 59.7237 4.77084C 57.5783 8.26527 57.0898 14.7688 57.0898 14.7688L 57.0898 1.76132L 51.1373 1.8583L 51.7237 23.6023L 45.8687 1.08168L 38.4544 1.37301L 38.2582 32.5331L 34.4538 1.8583L 23.1345 1.95567L 19.9157 22.049L 13.28 22.4377C 12.9876 31.0768 10.45 29.3296 10.45 29.3296C 6.84013 29.8149 7.62113 18.0693 7.62113 18.0693C 8.59632 6.42068 11.7188 6.12974 11.7188 6.12974C 15.0366 6.90598 13.3295 12.7307 13.3295 12.7307L 20.0615 12.7307C 21.8185 8.21639 20.3543 5.59557 20.3543 5.59557C 18.5981 0.208461 12.012 0.499404 12.012 0.499404C -0.721182 1.8102 0.0106989 20.3018 0.0106989 20.3018C -0.38 35.7358 10.0609 35.1539 10.0609 35.1539C 16.9882 36.2211 18.4519 30.6885 18.4519 30.6885L 17.6709 36.9007L 25.0868 36.5124L 26.2569 28.6499L 30.3554 28.7469L 31.428 35.2509L 44.21 35.2509L 44.3082 19.9135L 49.1861 36.8037L 56.9923 36.8037L 57.0898 24.7668C 58.3578 36.7067 67.8219 35.1539 67.8219 35.1539C 75.2378 35.9297 76.8973 28.0677 76.8973 28.0677L 77.0918 35.7358L 92.6052 35.4448L 92.898 36.9977L 99.7286 36.6094L 100.119 24.5732L 105.973 36.7067L 113.876 36.9007C 113.876 36.9007 114.094 36.8359 113.724 36.0771Z" transform="translate(87.06 49.0502)" fill="#004F8F"/>
<path id="Fill 7" fill-rule="evenodd" clip-rule="evenodd" d="M 58.298 33.5865L 53.8088 20.87C 53.8088 20.87 55.8582 20.9669 58.6883 17.3755L 58.298 33.5865ZM 46.9802 17.4725L 47.4192 7.86284C 47.4192 7.86284 52.1025 7.86285 52.395 12.3764C 52.395 12.3764 52.5416 18.2003 46.9802 17.4725ZM 26.929 23.4908L 29.1246 7.28057L 30.6371 23.5878L 26.929 23.4908ZM 8.04949 30.1402L 8.19571 20.5301C 8.19571 20.5301 12.44 20.9669 12.5862 25.4808C 12.5862 25.4808 13.1719 30.2857 8.04949 30.1402ZM 8.04949 7.57152C 8.04949 7.57152 12.44 7.86285 12.2934 10.9205C 12.2934 10.9205 12.5862 14.9976 8.04949 14.8521L 8.04949 7.57152ZM 81.3745 35.6732L 80.9347 2.03816L 74.6414 2.03816L 74.6414 22.5687L 67.6162 0.145081L 59.4201 0.436415L 59.1764 10.2408C 57.3711 -0.436802 39.9546 1.74721 39.9546 1.74721L 38.9299 32.7614L 35.2713 -1.42062e-07L 22.9779 0.436415L 19.9038 23.4423C 18.8799 20.2388 15.5133 18.734 15.5133 18.734C 20.4895 15.0945 19.4644 10.3378 19.4644 10.3378C 19.7576 -1.74682 0.292049 1.60174 0.292049 1.60174L 3.56982e-08 36.1096C 17.4157 38.4395 18.8799 30.5285 18.8799 30.5285L 18.2942 35.8186L 25.6122 36.2554L 26.3437 29.9947L 31.222 29.8977L 32.1983 35.6732L 46.1508 36.0126L 46.6873 23.2968L 52.1025 36.6922L 59.2739 36.6922L 58.8345 35.2364L 65.8597 35.2364L 65.7142 18.0548L 71.4215 35.6732L 81.3745 35.6732Z" transform="translate(5.25752 49.2587)" fill="#004F8F"/>
<path id="Fill 8" fill-rule="evenodd" clip-rule="evenodd" d="M 1.00716 8.68214L 6.04101 8.34814L 5.70568 -1.07287e-08L 7.13963e-07 0.501199L 1.00716 8.68214Z" transform="translate(81.9648 0)" fill="#D93480"/>
<path id="Fill 9" fill-rule="evenodd" clip-rule="evenodd" d="M 0.245261 8.23797L 5.28886 8.36753L 5.72752 0.0244392L 2.33228e-06 -8.87889e-09L 0.245261 8.23797Z" transform="translate(91.7314 0.240479)" fill="#D93480"/>
<path id="Fill 10" fill-rule="evenodd" clip-rule="evenodd" d="M 11.899 -3.13721e-07C 11.899 -3.13721e-07 13.5745 14.3784 12.5276 20.8381C 11.4802 27.2983 11.72 27.2009 9.5053 27.562C 7.29095 27.9232 6.67644 20.6702 6.67644 20.6702L 0.0400136 20.2819C 0.0400136 20.2819 -1.29663 35.0086 11.4802 34.5916C 24.2567 34.175 18.6017 1.66652 18.6017 1.66652L 18.3136 0.207928L 11.899 -3.13721e-07Z" transform="translate(118.319 9.65698)" fill="#D93480"/>
<path id="Fill 11" fill-rule="evenodd" clip-rule="evenodd" d="M 13.816 12.3233L 20.3865 11.5537C 20.3865 11.5537 20.3514 2.18881 13.8562 0.35858C 7.36167 -1.47126 2.1235 4.09313 0.849244 8.20319C -0.426181 12.3136 3.18564 17.6042 6.43717 19.2043C 9.68949 20.8045 13.9131 23.5088 13.4737 26.912C 13.0334 30.3157 11.0296 30.8545 9.19975 29.6217C 7.36908 28.3885 6.73936 24.3486 6.73936 24.3486L -1.9039e-07 24.9852C -1.9039e-07 24.9852 1.29258 37.8593 10.7505 36.9053C 20.2087 35.9507 21.5052 26.201 19.9331 21.9668C 18.3605 17.7333 13.5095 15.5582 10.7859 13.8964C 8.06392 12.2349 5.4421 6.90442 9.7199 6.17512C 13.9989 5.44621 13.816 12.3233 13.816 12.3233Z" transform="translate(42.9366 7.58344)" fill="#D93480"/>
<path id="Fill 12" fill-rule="evenodd" clip-rule="evenodd" d="M 21.4717 0.188919L 21.1944 6.79489L 14.7553 6.40735L 13.7797 34.9458L 6.82358 34.7196L 7.05909 6.15869L -1.33273e-06 6.15869L -1.33273e-06 0.0131894L 21.4881 -1.71659e-07" transform="translate(61.0374 9.5274)" fill="#D93480"/>
<path id="Fill 13" fill-rule="evenodd" clip-rule="evenodd" d="M 10.9262 5.0967C 6.82816 5.38803 6.92603 18.2012 6.92603 18.2012C 6.53533 30.723 9.85276 30.3351 9.85276 30.3351C 13.2681 31.2087 13.5605 18.4925 13.5605 18.4925C 14.1454 4.61179 10.9262 5.0967 10.9262 5.0967ZM 20.8547 20.5528C 20.8547 20.5528 20.6075 37.0671 9.93152 35.6946C 9.93152 35.6946 -0.351032 38.0998 0.0482452 19.9313C 0.0482452 19.9313 -0.377544 13.7443 1.30067 7.188C 2.26143 3.43056 4.70739 -0.0530026 10.162 0.052125C 10.162 0.052125 19.9821 -1.37039 20.8859 10.6471L 20.8547 20.5528Z" transform="translate(78.8958 9.29767)" fill="#D93480"/>
<path id="Fill 14" fill-rule="evenodd" clip-rule="evenodd" d="M 6.16774 9.97083L 5.74585 29.807C 5.74585 29.807 12.1807 29.3872 13.552 22.8802C 14.923 16.3727 6.16774 9.97083 6.16774 9.97083ZM 0.471022 -3.37398e-07C 0.471022 -3.37398e-07 16.9276 5.35297 19.0382 16.0581C 21.1477 26.7633 19.6796 38.1272 2.52267e-06 34.9117L 0.471022 -3.37398e-07Z" transform="translate(98.95 9.41992)" fill="#D93480"/>
<path id="Fill 15" fill-rule="evenodd" clip-rule="evenodd" d="M 23.4162 6.53106L 23.0255 15.7528C 27.0261 16.3351 27.2218 11.5787 27.2218 11.5787C 28.1974 6.91937 23.4162 6.53106 23.4162 6.53106ZM 0.194569 21.9654L 0.291657 1.58075L 14.9277 0.901496L 15.2205 6.91937L 7.60927 7.40466L 7.41431 14.7826L 12.5862 14.6852L 12.5862 20.5091L 7.60927 20.7035L 7.70792 29.0516L 16.0986 28.469L 16.0986 0.221852C 16.0986 0.221852 35.1247 -2.49595 34.3441 11.0934C 34.3441 11.0934 34.1491 17.597 28.6848 19.6359C 28.6848 19.6359 33.2574 28.6447 35.6577 33.5667C 35.8168 33.8914 36.1619 34.2948 36.3011 34.5815C 36.4976 34.9834 36.675 35.49 36.8267 35.7996C 37.1967 36.558 36.9791 36.6231 36.9791 36.6231L 29.0747 36.4292L 23.2212 24.2949L 22.8309 36.3318L 16.0007 36.7201L 15.7079 35.1669L 0.194569 35.4578L 2.66546e-06 27.7893L 0.194569 21.9654Z" transform="translate(137.47 8.99603)" fill="#D93480"/>
<path id="Fill 16" fill-rule="evenodd" clip-rule="evenodd" d="M 0.104498 0.933735L 7.64592 9.6188e-09L 7.64592 34.9799L -4.75975e-07 35.3143L 0.104498 0.933735Z" transform="translate(23.8473 8.513)" fill="#D93480"/>
<path id="Fill 18" fill-rule="evenodd" clip-rule="evenodd" d="M 14.7651 1.39381L 10.8327 20.9887L 8.31814 5.32733e-08L 0 0.258358L 5.84216 33.6563L 14.4075 33.8786L 22.9795 0.378227L 14.7651 1.39381Z" transform="translate(0.976608 9.81525)" fill="#D93480"/>
</g>
</g>
</svg>
