<svg width="300" height="59" viewBox="0 0 300 59" version="1.1" xmlns="http://www.w3.org/2000/svg" xmlns:xlink="http://www.w3.org/1999/xlink">
<g id="Canvas" fill="none">
<g id="sos-barnbyar-logo">
<path id="Fill 4" fill-rule="evenodd" clip-rule="evenodd" d="M 14.5299 10.5335C 15.1596 11.9129 16.527 12.877 18.1233 12.877C 20.3157 12.877 22.0942 11.0674 22.0942 8.83661C 22.0942 8.33081 21.9922 7.85468 21.8245 7.4097L 22.9062 6.49304C 22.9062 3.20463 20.2866 0.537718 17.0562 0.537718C 13.8229 0.537718 11.2047 3.20463 11.2047 6.49304C 11.2047 8.14985 11.868 9.64795 12.9438 10.7263L 14.5299 10.5335ZM 52.1008 11.3166L 52.4711 12.5062C 52.9609 13.4392 55.012 13.1277 55.012 13.1277C 56.6476 12.8859 57.1724 11.5302 57.1724 11.5302L 57.4144 9.32164L 58.1841 5.30643C 58.7308 2.54161 56.1112 0.579249 56.1112 0.579249C 54.1126 -0.936652 50.0425 1.00198 50.0425 1.00198C 49.2509 1.44399 48.7961 1.86524 48.7961 1.86524C 49.1343 3.28028 48.8398 5.5393 48.8398 5.5393C 48.0599 11.3077 52.1008 11.3166 52.1008 11.3166ZM 30.1804 27.9485C 30.0274 27.8595 29.8408 27.8536 29.6848 27.9307C 29.5259 28.0108 29.4166 28.1651 29.3932 28.3416C 29.2781 29.1663 29.1921 29.9717 29.1921 30.7831C 29.1906 32.1907 29.4515 33.6324 30.2212 35.2254C 31.4283 37.7515 33.1164 38.9885 35.0494 40.1158C 35.1325 40.1632 35.2214 40.187 35.3132 40.187C 35.3934 40.187 35.4721 40.1692 35.5494 40.1306C 35.7068 40.052 35.8147 39.8992 35.838 39.7212C 35.9488 38.8936 36.0348 38.0926 36.0377 37.2768C 36.0377 35.8736 35.7782 34.4334 35.01 32.8404C 33.803 30.3143 32.1134 29.0728 30.1804 27.9485ZM 34.975 37.2768C 34.975 37.7618 34.9415 38.2528 34.8876 38.7616C 33.3409 37.79 32.1426 36.7502 31.1732 34.7493C 30.4764 33.2957 30.2548 32.0587 30.2548 30.7831C 30.2548 30.298 30.2883 29.81 30.3422 29.3028C 31.8919 30.2773 33.0901 31.3141 34.0581 33.3135C 34.7549 34.7686 34.9736 36.0042 34.975 37.2768ZM 39.8483 40.9197C 39.9125 40.9464 39.981 40.9583 40.0481 40.9583C 40.1516 40.9613 40.255 40.9286 40.344 40.8678C 42.1939 39.61 43.796 38.2558 44.831 35.6526C 45.3733 34.291 45.5817 33.0643 45.5803 31.8881C 45.5803 30.8127 45.4112 29.7863 45.1925 28.7287C 45.1561 28.5522 45.0365 28.4069 44.8733 28.3416C 44.71 28.2689 44.5234 28.2912 44.3776 28.3905C 42.5277 29.6498 40.9227 31.0026 39.8891 33.6087C 39.3469 34.9644 39.1384 36.194 39.1399 37.3688C 39.1399 38.4427 39.3075 39.4676 39.5291 40.5311C 39.5641 40.7046 39.6865 40.853 39.8483 40.9197ZM 40.8731 34.0136C 41.7041 31.9519 42.8309 30.8335 44.3091 29.7537C 44.4359 30.482 44.519 31.1835 44.519 31.8881C 44.519 32.9368 44.3426 34.0062 43.8484 35.2447C 43.0161 37.308 41.8907 38.4263 40.411 39.5076C 40.2827 38.7734 40.1996 38.0748 40.1996 37.3688C 40.1996 36.3201 40.379 35.2536 40.8731 34.0136ZM 49.5206 50.162L 52.2146 42.3259L 56.3327 40.899L 56.843 38.9277L 63.572 44.8029C 64.5093 45.5371 65.3636 45.7745 66.0794 45.7745C 67.3972 45.7745 68.2398 44.9676 68.2398 44.9676C 70.7311 42.7723 73.6903 38.5865 73.6903 38.5865C 74.3405 37.3525 73.5373 36.682 73.5373 36.682C 73.2734 36.4669 72.9819 36.3943 72.7034 36.3943C 72.0926 36.3943 71.5518 36.7502 71.5518 36.7502L 67.3709 38.9752L 65.6814 37.3821L 65.5487 37.2368C 66.9613 36.2281 67.4278 35.7995 67.4278 35.7995C 68.4584 34.7404 67.6479 33.3417 67.6479 33.3417L 62.0355 20.5989L 70.9221 22.407C 71.0139 22.4234 71.0984 22.4293 71.1786 22.4293C 72.0518 22.4293 72.3142 21.5037 72.3142 21.5037C 72.5547 20.4936 71.371 19.8706 71.371 19.8706L 60.327 13.5104C 60.327 13.5104 60.1317 13.3635 59.9334 13.3635C 59.8051 13.3635 59.6754 13.4244 59.5908 13.6276L 57.2132 18.3355L 54.8487 14.9595C 54.8487 14.9595 54.7671 14.7993 54.6082 14.7993C 54.5295 14.7993 54.4304 14.8379 54.3137 14.9595L 52.2146 17.5701L 50.8953 14.967C 50.7524 14.6466 50.5789 14.5516 50.4273 14.5531C 50.2174 14.5531 50.0469 14.7326 50.0469 14.7326L 41.7114 24.6394C 40.7784 25.9016 41.6166 26.5439 41.6166 26.5439C 41.8207 26.7174 42.0481 26.7767 42.2668 26.7767C 42.7551 26.7767 43.1925 26.4742 43.1925 26.4742L 49.4827 22.5405L 44.3106 50.162L 38.185 50.162L 38.185 21.8182C 40.1399 19.4242 41.6385 17.0154 41.6443 13.411L 41.1151 13.411L 41.6443 13.3754L 41.6443 13.3621C 41.6516 9.63757 40.0582 7.1798 38.0188 4.68345C 37.9197 4.56034 37.771 4.48915 37.6136 4.48915C 37.4547 4.48915 37.3074 4.55589 37.2039 4.68049C 35.1339 7.1709 33.5202 9.62867 33.5143 13.3799C 33.51 13.3932 33.5114 13.4229 33.5114 13.4229C 33.5056 17.1399 35.0902 19.5933 37.1223 22.0837L 37.1223 50.162L 31.1892 50.162L 24.7605 22.8046L 31.7767 26.5913C 31.7767 26.5913 32.1674 26.8168 32.6105 26.8168C 32.8656 26.8168 33.1368 26.7441 33.3598 26.5157C 33.3598 26.5157 34.1339 25.8052 33.093 24.6394L 22.8129 13.6988C 22.8129 13.6988 22.6409 13.4941 22.3872 13.4941C 22.2633 13.4941 22.1175 13.546 21.963 13.6988L 21.8683 13.718C 20.8391 14.6584 19.4731 15.2325 17.9746 15.2325C 16.543 15.2325 15.234 14.7178 14.2223 13.8426L 2.76861 20.6093C 2.76861 20.6093 1.59367 21.1626 1.92895 22.2305C 1.92895 22.2305 2.15198 22.8787 2.87941 22.8787C 3.02956 22.8787 3.20302 22.852 3.39691 22.7838L 11.989 20.4046L 5.75559 33.5449C 5.75559 33.5449 5.05877 34.8873 6.18563 35.9641C 6.18563 35.9641 7.15941 37.0513 8.88686 38.2943L 8.67694 38.548L 7.13025 40.2878L 2.30943 37.1003C 2.30943 37.1003 1.85606 36.7903 1.30649 36.7903C 0.99015 36.7903 0.646117 36.8912 0.335613 37.2071C 0.335613 37.2071 -0.419509 37.9354 0.335613 39.1101C 0.335613 39.1101 3.59809 43.9278 6.27017 45.8991C 6.27017 45.8991 7.04862 46.5265 8.20609 46.5265C 8.97725 46.5265 9.91313 46.2491 10.9015 45.325L 15.2063 41.074C 15.2063 41.074 17.9498 42.3348 21.4572 42.3348C 21.8041 42.3348 22.1584 42.3244 22.517 42.2962L 25.794 50.162L 0.0192852 50.162L 0.0192852 51.2418L 26.243 51.2418L 26.7649 52.4952C 26.7649 52.4952 27.8699 55.5314 29.7606 55.5314C 29.9647 55.5314 30.179 55.4958 30.4035 55.4172C 30.4035 55.4172 32.3977 54.9411 31.5464 51.6883L 31.4414 51.2418L 37.1223 51.2418L 37.1223 55.9571L 38.185 55.9571L 38.185 51.2418L 44.1094 51.2418L 44.0132 51.7476C 43.4417 55.0686 45.4651 55.3593 45.4651 55.3593C 45.6386 55.4053 45.8033 55.4276 45.9637 55.4276C 47.9593 55.4276 48.8442 52.1347 48.8442 52.1347L 49.1503 51.2418L 73.9454 51.2418L 73.9454 50.162L 49.5206 50.162ZM 38.185 6.64137C 39.6399 8.6245 40.5772 10.5587 40.583 13.3621C 40.583 13.3621 40.583 13.3917 40.583 13.4347C 40.5626 16.2159 39.6326 18.1337 38.185 20.0887L 38.185 6.64137ZM 37.1223 20.3438C 35.5844 18.291 34.58 16.3227 34.5727 13.4288L 34.5698 13.4288C 34.5931 10.4994 35.5917 8.53402 37.1223 6.50787L 37.1223 20.3438Z" transform="translate(226.055 2.07587)" fill="#EE7203"/>
<path id="Fill 5" fill-rule="evenodd" clip-rule="evenodd" d="M 0.0145781 0.725319C 0.00437374 0.676371 1.11219e-07 0.627424 1.11219e-07 0.579959C 0.0102045 0.474647 0.0422765 0.363401 0.0991293 0.246223C 0.195342 0.0830635 0.351323 -9.05316e-08 0.569987 -9.05316e-08L 3.7727 -9.05316e-08C 4.08611 -9.05316e-08 4.27125 0.149809 4.3281 0.44943L 7.54539 14.3699C 7.58329 14.5049 7.64889 14.5731 7.74365 14.5731L 7.91567 14.5731C 8.01042 14.5731 8.08185 14.5049 8.1285 14.3699L 11.3035 0.44943C 11.3604 0.149809 11.5455 -9.05316e-08 11.8589 -9.05316e-08L 15.0616 -9.05316e-08C 15.2992 -9.05316e-08 15.4596 0.0771293 15.5456 0.232873C 15.6025 0.338185 15.6316 0.453881 15.6316 0.579959C 15.6316 0.627424 15.6272 0.676371 15.617 0.725319L 10.5775 20.3238C 10.4813 20.6234 10.2962 20.7717 10.0221 20.7717L 5.6226 20.7717C 5.32813 20.7717 5.14299 20.6234 5.06719 20.3238L 0.0145781 0.725319Z" transform="translate(0 5.63348)" fill="#EE7203"/>
<path id="Fill 6" fill-rule="evenodd" clip-rule="evenodd" d="M -2.62476e-06 20.1784L -2.62476e-06 0.594792C -2.62476e-06 0.439049 0.0597681 0.301102 0.177847 0.182441C 0.295926 0.0608127 0.431498 -9.05316e-08 0.583106 -9.05316e-08L 3.50155 -9.05316e-08C 3.65461 -9.05316e-08 3.79019 0.0608127 3.90827 0.182441C 4.02635 0.301102 4.08611 0.439049 4.08611 0.594792L 4.08611 20.1784C 4.08611 20.3327 4.02635 20.4706 3.90827 20.5907C 3.79019 20.7109 3.65461 20.7717 3.50155 20.7717L 0.583106 20.7717C 0.431498 20.7717 0.295926 20.7109 0.177847 20.5907C 0.0597681 20.4706 -2.62476e-06 20.3327 -2.62476e-06 20.1784Z" transform="translate(19.6696 5.63348)" fill="#EE7203"/>
<path id="Fill 7" fill-rule="evenodd" clip-rule="evenodd" d="M -2.22437e-06 14.9113L -2.22437e-06 14.0288C -2.22437e-06 13.873 0.0583116 13.7351 0.176391 13.6134C 0.29447 13.4933 0.428585 13.4325 0.578735 13.4325L 3.50593 13.4414C 3.65608 13.4414 3.79019 13.4992 3.90827 13.6149C 4.02634 13.7306 4.08466 13.8715 4.08466 14.0362L 4.08466 14.9187C 4.08466 15.6144 4.33102 16.1943 4.82375 16.6571C 5.31647 17.1214 6.02057 17.3528 6.93896 17.3528C 7.81071 17.3528 8.50898 17.1214 9.03377 16.6556C 9.55857 16.1914 9.82242 15.6114 9.82242 14.9128C 9.82242 14.275 9.59355 13.784 9.1329 13.4399C 8.67516 13.0973 7.89671 12.7947 6.79756 12.5336C 5.88937 12.3393 5.03366 12.0783 4.23189 11.749C 3.43012 11.4197 2.7406 11.0073 2.16187 10.5149C 1.58459 10.021 1.12394 9.42173 0.782821 8.71569C 0.440247 8.00817 0.269686 7.18051 0.269686 6.2327C 0.269686 5.36795 0.434412 4.55512 0.768241 3.7942C 1.09915 3.03477 1.56418 2.37323 2.16187 1.80959C 2.75809 1.24743 3.46074 0.803931 4.26542 0.483545C 5.07157 0.160192 5.96226 -1.13164e-06 6.93896 -1.13164e-06C 7.90109 -1.13164e-06 8.7947 0.161678 9.61542 0.48503C 10.4376 0.808383 11.1432 1.25188 11.7321 1.817C 12.3225 2.38213 12.7831 3.04515 13.1141 3.80904C 13.4435 4.57292 13.6097 5.38723 13.6097 6.25643L 13.6097 6.70586C 13.6097 6.8616 13.5499 6.99807 13.4318 7.11821C 13.3138 7.23836 13.1811 7.29917 13.0295 7.29917L 10.1023 7.29917C 9.95216 7.29917 9.81805 7.23835 9.69997 7.11673C 9.58189 6.9951 9.52358 6.85715 9.52358 6.69993L 9.52358 6.24901C 9.52358 5.65274 9.30054 5.13063 8.85592 4.67675C 8.4113 4.22287 7.7728 3.99741 6.93896 3.99741C 6.12553 3.99741 5.50161 4.19617 5.06573 4.5922C 4.62986 4.98972 4.41265 5.4881 4.41265 6.08734C 4.41265 6.65839 4.65464 7.11821 5.13717 7.46678C 5.61969 7.81535 6.23923 8.0675 6.99581 8.22176C 8.00021 8.44425 8.93464 8.71866 9.80347 9.04201C 10.6708 9.36536 11.4158 9.79106 12.0368 10.3206C 12.6578 10.8471 13.149 11.4879 13.5091 12.2429C 13.8692 12.9979 14.0499 13.8879 14.0499 14.9128C 14.0499 15.8814 13.875 16.7595 13.5237 17.553C 13.1738 18.3451 12.6826 19.0289 12.0513 19.6029C 11.4216 20.1784 10.6679 20.6263 9.79035 20.9452C 8.91424 21.2642 7.96231 21.4229 6.93896 21.4229C 5.93456 21.4229 5.00742 21.2538 4.159 20.9156C 3.31058 20.5774 2.58024 20.1146 1.96944 19.5317C 1.35718 18.9458 0.876115 18.2561 0.526251 17.464C 0.17493 16.6719 -2.22437e-06 15.822 -2.22437e-06 14.9113Z" transform="translate(36.7065 5.31604)" fill="#EE7203"/>
<path id="Fill 8" fill-rule="evenodd" clip-rule="evenodd" d="M 1.51257e-06 3.5643L 1.51257e-06 0.594792C 1.51257e-06 0.439049 0.0597667 0.301102 0.177846 0.182441C 0.295925 0.0608127 0.431497 -9.05316e-08 0.583104 -9.05316e-08L 12.5266 -9.05316e-08C 12.6796 -9.05316e-08 12.8152 0.0608127 12.9333 0.182441C 13.0514 0.301102 13.1111 0.439049 13.1111 0.594792L 13.1111 3.5643C 13.1111 3.71856 13.0514 3.8565 12.9333 3.97664C 12.8152 4.09679 12.6811 4.1576 12.528 4.1576L 8.89528 4.1576C 8.70577 4.1576 8.6081 4.25995 8.5979 4.46167L 8.5979 20.1784C 8.5979 20.3327 8.54105 20.4706 8.42734 20.5907C 8.31218 20.7109 8.17369 20.7717 8.01333 20.7717L 5.08323 20.7717C 4.93162 20.7717 4.79896 20.7109 4.6838 20.5907C 4.56863 20.4706 4.51178 20.3327 4.51178 20.1784L 4.51178 4.46167C 4.51178 4.26885 4.41265 4.16799 4.2144 4.1576L 0.581647 4.1576C 0.43004 4.1576 0.295925 4.09976 0.177846 3.98406C 0.058309 3.86837 1.51257e-06 3.72746 1.51257e-06 3.5643Z" transform="translate(53.8892 5.63348)" fill="#EE7203"/>
<path id="Fill 9" fill-rule="evenodd" clip-rule="evenodd" d="M 8.32821 3.27358L 8.32821 0.593308C 8.32821 0.439048 8.38507 0.301104 8.49878 0.180959C 8.61248 0.0608145 8.75096 -5.88455e-07 8.91132 -5.88455e-07L 11.5309 -5.88455e-07C 11.684 -5.88455e-07 11.8181 0.0608145 11.9376 0.180959C 12.0557 0.301104 12.1155 0.439048 12.1155 0.593308L 12.1155 3.27358C 12.1155 3.42784 12.0586 3.56578 11.9435 3.68592C 11.8298 3.80607 11.6927 3.86688 11.5309 3.86688L 8.91132 3.86688C 8.75971 3.86688 8.62414 3.80607 8.50606 3.68592C 8.38798 3.56578 8.32821 3.42784 8.32821 3.27358ZM 4.14735 13.8582C 4.10507 14.5627 4.08612 15.2821 4.08612 16.0193C 4.08612 16.7565 4.10507 17.4818 4.14735 18.1953C 4.18671 18.9087 4.24501 19.5747 4.32081 20.1962C 4.39807 20.8548 4.66485 21.4184 5.1255 21.8842C 5.5847 22.3484 6.2611 22.5813 7.15179 22.5813C 8.04686 22.5813 8.72181 22.3484 9.17954 21.8842C 9.63583 21.4184 9.90697 20.8548 9.99298 20.1962C 10.0688 19.5851 10.1213 18.9191 10.1504 18.2027C 10.1781 17.4848 10.1927 16.7565 10.1927 16.0193C 10.1927 15.2821 10.1781 14.5627 10.1504 13.8582C 10.1213 13.1566 10.0688 12.4847 9.99298 11.8439C 9.91717 11.1853 9.64749 10.6247 9.18684 10.1634C 8.72473 9.70355 8.04686 9.47216 7.15179 9.47216C 6.2611 9.47216 5.58761 9.70651 5.13279 10.1708C 4.67651 10.638 4.40536 11.1942 4.32081 11.8439C 4.24501 12.4847 4.18671 13.1566 4.14735 13.8582ZM 2.49132 3.27358L 2.49132 0.593308C 2.49132 0.439048 2.54963 0.301104 2.66917 0.180959C 2.78725 0.0608145 2.92137 -5.88455e-07 3.07152 -5.88455e-07L 5.69694 -5.88455e-07C 5.84855 -5.88455e-07 5.98267 0.0608145 6.10075 0.180959C 6.21882 0.301104 6.27859 0.439048 6.27859 0.593308L 6.27859 3.27358C 6.27859 3.42784 6.21882 3.56578 6.10075 3.68592C 5.98267 3.80607 5.84855 3.86688 5.69694 3.86688L 3.07152 3.86688C 2.92137 3.86688 2.78725 3.80607 2.66917 3.68592C 2.54963 3.56578 2.49132 3.42784 2.49132 3.27358ZM 0.0641411 18.1967C 0.0218659 17.4833 1.33462e-06 16.7565 1.33462e-06 16.0193C 1.33462e-06 15.2821 0.0189544 14.5642 0.0568563 13.8641C 0.0933004 13.1655 0.155983 12.4965 0.241991 11.8602C 0.335288 10.9717 0.562692 10.1322 0.92276 9.34015C 1.28137 8.54808 1.75515 7.85391 2.34118 7.25467C 2.92866 6.65691 3.62546 6.18523 4.43452 5.83666C 5.24358 5.48958 6.15031 5.31604 7.15179 5.31604C 8.1562 5.31604 9.06001 5.48958 9.8647 5.83666C 10.6679 6.18523 11.3662 6.65691 11.958 7.25467C 12.5484 7.85391 13.0251 8.54808 13.3852 9.34015C 13.7438 10.1322 13.9712 10.9717 14.0645 11.8602C 14.1418 12.4965 14.1957 13.1655 14.2292 13.8641C 14.2613 14.5642 14.2788 15.2821 14.2788 16.0193C 14.2788 16.7565 14.2642 17.4803 14.2365 18.1893C 14.2074 18.8998 14.1505 19.5628 14.0645 20.1799C 13.9712 21.0684 13.7438 21.9079 13.3852 22.6985C 13.0251 23.492 12.5484 24.1877 11.958 24.7914C 11.3662 25.3951 10.6679 25.8697 9.8647 26.2168C 9.06001 26.5654 8.1562 26.7389 7.15179 26.7389C 6.15031 26.7389 5.24358 26.5654 4.43452 26.2168C 3.62546 25.8697 2.92866 25.3951 2.34118 24.7914C 1.75515 24.1877 1.28137 23.492 0.92276 22.6985C 0.562692 21.9079 0.335288 21.0684 0.241991 20.1799C 0.164729 19.5717 0.106416 18.9117 0.0641411 18.1967Z" transform="translate(70.3299 0)" fill="#EE7203"/>
<path id="Fill 10" fill-rule="evenodd" clip-rule="evenodd" d="M 4.08612 16.3249C 4.08612 16.5177 4.18087 16.6156 4.37038 16.6156L 6.70572 16.6156C 7.38795 16.6156 7.93898 16.3783 8.3559 15.9051C 8.77428 15.4319 9.02211 14.8668 9.09645 14.2112C 9.24952 12.9653 9.32532 11.6896 9.32532 10.3859C 9.32532 9.08354 9.24952 7.80793 9.09645 6.56198C 9.02211 5.90638 8.77428 5.34125 8.3559 4.86809C 7.93898 4.39344 7.38795 4.1576 6.70572 4.1576L 4.37038 4.1576C 4.18087 4.1576 4.08612 4.25995 4.08612 4.46167L 4.08612 16.3249ZM 2.40232e-06 20.1784L 2.40232e-06 0.594792C 2.40232e-06 0.439049 0.0597732 0.301102 0.177852 0.182441C 0.295931 0.0608127 0.431504 -9.05316e-08 0.581654 -9.05316e-08L 6.69114 -9.05316e-08C 7.58038 -9.05316e-08 8.4011 0.175025 9.14748 0.52211C 9.89677 0.869195 10.5513 1.34532 11.1155 1.94901C 11.6796 2.55271 12.1417 3.24984 12.5003 4.04191C 12.8604 4.83397 13.0893 5.67499 13.1826 6.56198C 13.3356 7.80793 13.41 9.08354 13.41 10.3859C 13.41 11.6896 13.3356 12.9653 13.1826 14.2112C 13.0893 15.0982 12.8604 15.9392 12.5003 16.7313C 12.1417 17.5233 11.6796 18.2205 11.1155 18.8242C 10.5513 19.4279 9.89677 19.9025 9.14748 20.2511C 8.4011 20.5982 7.58038 20.7717 6.69114 20.7717L 0.581654 20.7717C 0.431504 20.7717 0.295931 20.7109 0.177852 20.5907C 0.0597732 20.4706 2.40232e-06 20.3327 2.40232e-06 20.1784Z" transform="translate(89.5826 5.63348)" fill="#EE7203"/>
<path id="Fill 11" fill-rule="evenodd" clip-rule="evenodd" d="M -3.11412e-06 14.5153L -3.11412e-06 13.6891C -3.11412e-06 13.5333 0.0583107 13.3969 0.17639 13.2767C 0.294469 13.1566 0.428584 13.0958 0.580191 13.0958L 3.50592 13.0958C 3.65753 13.0958 3.79164 13.1536 3.90972 13.2708C 4.0278 13.388 4.08611 13.5289 4.08611 13.6935L 4.08611 14.5257C 4.08611 15.2065 4.32373 15.7805 4.79896 16.2477C 5.27419 16.715 5.9229 16.9478 6.7407 16.9478C 7.54102 16.9478 8.18098 16.7031 8.66204 16.2151C 9.14164 15.7271 9.38218 15.0671 9.38218 14.2349L 9.38218 0.596275C 9.38218 0.440532 9.43903 0.302586 9.55273 0.182441C 9.66498 0.0608128 9.80347 -9.05316e-08 9.96382 -9.05316e-08L 12.8998 -9.05316e-08C 13.0514 -9.05316e-08 13.184 0.0608128 13.2963 0.182441C 13.41 0.301102 13.4683 0.439049 13.4683 0.594792L 13.4683 14.5153C 13.4683 15.423 13.3079 16.2774 12.9901 17.0784C 12.6738 17.8793 12.2234 18.5779 11.6403 19.1713C 11.0571 19.766 10.3487 20.2362 9.51483 20.5833C 8.67953 20.9319 7.75677 21.1054 6.7407 21.1054C 5.77566 21.1054 4.88642 20.9319 4.07299 20.5833C 3.25956 20.2362 2.54672 19.766 1.93737 19.1713C 1.32657 18.5779 0.85134 17.8793 0.51168 17.0784C 0.170563 16.2774 -3.11412e-06 15.423 -3.11412e-06 14.5153Z" transform="translate(106.701 5.63348)" fill="#EE7203"/>
<path id="Fill 12" fill-rule="evenodd" clip-rule="evenodd" d="M -5.51644e-06 20.1784L -5.51644e-06 0.594792C -5.51644e-06 0.439049 0.0597652 0.301102 0.177844 0.182441C 0.295923 0.0608127 0.431494 -9.05316e-08 0.58456 -9.05316e-08L 11.1752 -9.05316e-08C 11.3283 -9.05316e-08 11.4609 0.0608127 11.5747 0.182441C 11.6884 0.301102 11.7452 0.439049 11.7452 0.594792L 11.7452 3.5643C 11.7452 3.71856 11.6884 3.8565 11.5747 3.97664C 11.4609 4.09679 11.3283 4.1576 11.1752 4.1576L 4.37038 4.1576C 4.18087 4.1576 4.08611 4.25995 4.08611 4.46167L 4.08611 8.01114C 4.08611 8.20396 4.18087 8.30483 4.37038 8.31521L 10.9332 8.31521C 11.0863 8.31521 11.2204 8.37305 11.34 8.48875C 11.458 8.60444 11.5178 8.74536 11.5178 8.90852L 11.5178 11.878C 11.5178 12.0338 11.4609 12.1717 11.3458 12.2919C 11.2321 12.412 11.095 12.4728 10.9332 12.4728L 4.37038 12.4728C 4.18087 12.4728 4.08611 12.5692 4.08611 12.762L 4.08611 16.3249C 4.08611 16.5177 4.18087 16.6156 4.37038 16.6156L 11.2889 16.6156C 11.442 16.6156 11.5776 16.6764 11.6956 16.7965C 11.8137 16.9167 11.8735 17.0546 11.8735 17.2089L 11.8735 20.1784C 11.8735 20.3327 11.8137 20.4706 11.6956 20.5907C 11.5776 20.7109 11.442 20.7717 11.2889 20.7717L 0.58456 20.7717C 0.431494 20.7717 0.295923 20.7109 0.177844 20.5907C 0.0597652 20.4706 -5.51644e-06 20.3327 -5.51644e-06 20.1784Z" transform="translate(125.474 5.63348)" fill="#EE7203"/>
<path id="Fill 13" fill-rule="evenodd" clip-rule="evenodd" d="M 4.08612 8.01114C 4.08612 8.20396 4.18087 8.30483 4.37038 8.31521L 7.00311 8.31521C 7.56289 8.31521 8.04249 8.112 8.44192 7.70707C 8.83989 7.30065 9.0396 6.80821 9.0396 6.22973C 9.0396 5.66016 8.83989 5.17216 8.44192 4.76574C 8.04249 4.36081 7.56289 4.1576 7.00311 4.1576L 4.37038 4.1576C 4.18087 4.1576 4.08612 4.25995 4.08612 4.46167L 4.08612 8.01114ZM 3.11412e-06 20.1784L 3.11412e-06 0.594792C 3.11412e-06 0.439049 0.0597739 0.301102 0.177853 0.182441C 0.295932 0.0608127 0.431504 -9.05316e-08 0.583111 -9.05316e-08L 7.00311 -9.05316e-08C 7.83986 -9.05316e-08 8.62997 0.164644 9.37343 0.492446C 10.1184 0.821732 10.7685 1.2682 11.3239 1.83332C 11.8793 2.39845 12.3181 3.05998 12.6417 3.81793C 12.9639 4.5744 13.1257 5.37834 13.1257 6.22973C 13.1257 7.37778 12.8808 8.36267 12.3925 9.1844C 11.9041 10.0047 11.1359 10.773 10.0936 11.4879C 9.8749 11.6422 9.76557 11.789 9.76557 11.9285C 9.76557 12.0694 9.81221 12.2503 9.90843 12.4728L 13.0397 19.8892C 13.1359 20.1102 13.1374 20.3134 13.047 20.4973C 12.9566 20.6812 12.77 20.7717 12.4843 20.7717L 9.4813 20.7717C 9.24369 20.7717 9.06438 20.7168 8.94047 20.6056C 8.81656 20.4943 8.71161 20.3519 8.62706 20.1784L 5.65176 12.8496C 5.6124 12.7724 5.55554 12.6894 5.48119 12.6033C 5.40539 12.5158 5.29169 12.4728 5.13863 12.4728L 4.37038 12.4728C 4.18087 12.4728 4.08612 12.5692 4.08612 12.762L 4.08612 20.1784C 4.08612 20.3327 4.02635 20.4706 3.90681 20.5907C 3.78873 20.7109 3.65462 20.7717 3.50156 20.7717L 0.583111 20.7717C 0.431504 20.7717 0.295932 20.7109 0.177853 20.5907C 0.0597739 20.4706 3.11412e-06 20.3327 3.11412e-06 20.1784Z" transform="translate(142.263 5.63348)" fill="#EE7203"/>
<path id="Fill 14" fill-rule="evenodd" clip-rule="evenodd" d="M 1.37911e-06 14.9113L 1.37911e-06 14.0288C 1.37911e-06 13.873 0.0583096 13.7351 0.176389 13.6134C 0.294468 13.4933 0.428583 13.4325 0.58019 13.4325L 3.50592 13.4414C 3.65753 13.4414 3.79165 13.4992 3.90973 13.6149C 4.02781 13.7306 4.08612 13.8715 4.08612 14.0362L 4.08612 14.9187C 4.08612 15.6144 4.33248 16.1943 4.8252 16.6571C 5.31793 17.1214 6.02203 17.3528 6.94042 17.3528C 7.81216 17.3528 8.50898 17.1214 9.03377 16.6556C 9.56002 16.1914 9.82242 15.6114 9.82242 14.9128C 9.82242 14.275 9.59355 13.784 9.13436 13.4399C 8.67516 13.0973 7.89671 12.7947 6.79756 12.5336C 5.88937 12.3393 5.03366 12.0783 4.23335 11.749C 3.43158 11.4197 2.74206 11.0073 2.16332 10.5149C 1.58459 10.021 1.12539 9.42172 0.782819 8.71569C 0.441702 8.00817 0.271144 7.18051 0.271144 6.2327C 0.271144 5.36795 0.435873 4.55512 0.769701 3.79421C 1.10061 3.03477 1.56418 2.37323 2.16332 1.80959C 2.75955 1.24743 3.46073 0.805414 4.26688 0.483545C 5.07302 0.160192 5.96372 -1.13164e-06 6.94042 -1.13164e-06C 7.90255 -1.13164e-06 8.7947 0.161675 9.61688 0.485027C 10.4376 0.80838 11.1446 1.25188 11.7336 1.81701C 12.3225 2.38213 12.7846 3.04515 13.1141 3.80904C 13.445 4.57292 13.6097 5.38724 13.6097 6.25643L 13.6097 6.70586C 13.6097 6.8616 13.5514 6.99806 13.4333 7.11821C 13.3152 7.23835 13.1811 7.29917 13.031 7.29917L 10.1038 7.29917C 9.95216 7.29917 9.81951 7.23835 9.69997 7.11673C 9.58189 6.9951 9.52358 6.85716 9.52358 6.69993L 9.52358 6.24901C 9.52358 5.65274 9.302 5.13063 8.85592 4.67675C 8.41276 4.22287 7.7728 3.99741 6.94042 3.99741C 6.12553 3.99741 5.50306 4.19617 5.06719 4.5922C 4.63132 4.98972 4.41411 5.4881 4.41411 6.08734C 4.41411 6.65839 4.6561 7.11821 5.13862 7.46678C 5.62114 7.81535 6.23924 8.0675 6.99727 8.22176C 8.00022 8.44425 8.9361 8.71866 9.80493 9.04201C 10.6708 9.36536 11.4158 9.79106 12.0382 10.3206C 12.6592 10.8471 13.1505 11.4879 13.5106 12.2414C 13.8706 12.9979 14.0514 13.8879 14.0514 14.9128C 14.0514 15.8814 13.8765 16.7595 13.5251 17.553C 13.1738 18.3451 12.6826 19.0289 12.0528 19.6029C 11.4216 20.1784 10.6694 20.6263 9.79181 20.9452C 8.91423 21.2642 7.96377 21.4229 6.94042 21.4229C 5.93456 21.4229 5.00888 21.2538 4.16046 20.9156C 3.31204 20.5774 2.5817 20.1146 1.9709 19.5317C 1.35864 18.9458 0.877575 18.2561 0.527712 17.464C 0.174932 16.6719 1.37911e-06 15.822 1.37911e-06 14.9113Z" transform="translate(0.711395 37.5771)" fill="#F6AE75"/>
<path id="Fill 15" fill-rule="evenodd" clip-rule="evenodd" d="M 4.14297 8.54214C 4.10506 9.2467 4.08612 9.96608 4.08612 10.7033C 4.08612 11.4405 4.10506 12.1658 4.14297 12.8792C 4.18233 13.5927 4.23918 14.2587 4.31353 14.8802C 4.39079 15.5387 4.66048 16.1024 5.12113 16.5681C 5.58324 17.0324 6.25964 17.2653 7.15471 17.2653C 8.04832 17.2653 8.72472 17.0324 9.17955 16.5681C 9.63729 16.1024 9.90843 15.5387 9.99444 14.8802C 10.0702 14.2691 10.1227 13.6031 10.1504 12.8866C 10.1796 12.1687 10.1942 11.4405 10.1942 10.7033C 10.1942 9.96608 10.1796 9.2467 10.1504 8.54214C 10.1227 7.84056 10.0702 7.16864 9.99444 6.52787C 9.91717 5.8693 9.64895 5.30862 9.18684 4.84733C 8.72618 4.38751 8.04832 4.15612 7.15471 4.15612C 6.25964 4.15612 5.5847 4.39048 5.12842 4.85474C 4.67214 5.32197 4.39953 5.8782 4.31353 6.52787C 4.23918 7.16864 4.18233 7.84056 4.14297 8.54214ZM 0.0641442 12.8807C 0.021869 12.1673 -1.20116e-06 11.4405 -1.20116e-06 10.7033C -1.20116e-06 9.96608 0.0189511 9.24818 0.0583107 8.54808C 0.0947549 7.84946 0.155981 7.18051 0.240531 6.54419C 0.335286 5.65571 0.562695 4.81618 0.922763 4.02411C 1.28137 3.23204 1.75515 2.53639 2.34263 1.93863C 2.92865 1.34087 3.62692 0.867714 4.43452 0.520629C 5.24504 0.173544 6.15031 -1.13164e-06 7.15471 -1.13164e-06C 8.15765 -1.13164e-06 9.06001 0.173544 9.8647 0.520629C 10.6694 0.867714 11.3662 1.34087 11.9595 1.93863C 12.5499 2.53639 13.0251 3.23204 13.3852 4.02411C 13.7438 4.81618 13.9712 5.65571 14.066 6.54419C 14.1432 7.18051 14.1972 7.84946 14.2292 8.54808C 14.2628 9.24818 14.2788 9.96608 14.2788 10.7033C 14.2788 11.4405 14.2657 12.1643 14.2365 12.8733C 14.2088 13.5838 14.1505 14.2468 14.066 14.8638C 13.9712 15.7523 13.7438 16.5919 13.3852 17.3824C 13.0251 18.176 12.5499 18.8716 11.9595 19.4753C 11.3662 20.079 10.6694 20.5537 9.8647 20.9007C 9.06001 21.2493 8.15765 21.4229 7.15471 21.4229C 6.15031 21.4229 5.24504 21.2493 4.43452 20.9007C 3.62692 20.5537 2.92865 20.079 2.34263 19.4753C 1.75661 18.8716 1.28137 18.176 0.922763 17.3824C 0.562695 16.5919 0.336744 15.7523 0.240531 14.8638C 0.166185 14.2557 0.106419 13.5956 0.0641442 12.8807Z" transform="translate(18.7964 37.5771)" fill="#F6AE75"/>
<path id="Fill 16" fill-rule="evenodd" clip-rule="evenodd" d="M 2.09091e-06 14.9113L 2.09091e-06 14.0288C 2.09091e-06 13.873 0.0583103 13.7351 0.176389 13.6134C 0.294468 13.4933 0.428584 13.4325 0.578734 13.4325L 3.50593 13.4414C 3.65753 13.4414 3.79019 13.4992 3.90973 13.6149C 4.02781 13.7306 4.08611 13.8715 4.08611 14.0362L 4.08611 14.9187C 4.08611 15.6144 4.33248 16.1943 4.82374 16.6571C 5.31647 17.1214 6.02203 17.3528 6.94042 17.3528C 7.8107 17.3528 8.50898 17.1214 9.03377 16.6556C 9.56002 16.1914 9.82242 15.6114 9.82242 14.9128C 9.82242 14.275 9.59355 13.784 9.13436 13.4399C 8.67516 13.0973 7.89671 12.7947 6.79756 12.5336C 5.88937 12.3393 5.03367 12.0783 4.23189 11.749C 3.43012 11.4197 2.74206 11.0073 2.16186 10.5149C 1.58459 10.021 1.12394 9.42172 0.78282 8.71569C 0.441703 8.00817 0.269685 7.18051 0.269685 6.2327C 0.269685 5.36795 0.435874 4.55512 0.768245 3.79421C 1.10062 3.03477 1.56418 2.37323 2.16186 1.80959C 2.75809 1.24743 3.46073 0.805414 4.26688 0.483545C 5.07156 0.160192 5.96372 -1.13164e-06 6.94042 -1.13164e-06C 7.90254 -1.13164e-06 8.7947 0.161675 9.61688 0.485027C 10.4376 0.80838 11.1432 1.25188 11.7336 1.81701C 12.3225 2.38213 12.7831 3.04515 13.1141 3.80904C 13.445 4.57292 13.6097 5.38724 13.6097 6.25643L 13.6097 6.70586C 13.6097 6.8616 13.5514 6.99806 13.4333 7.11821C 13.3152 7.23835 13.1811 7.29917 13.0295 7.29917L 10.1038 7.29917C 9.95216 7.29917 9.81805 7.23835 9.69997 7.11673C 9.58189 6.9951 9.52358 6.85716 9.52358 6.69993L 9.52358 6.24901C 9.52358 5.65274 9.302 5.13063 8.85592 4.67675C 8.4113 4.22287 7.7728 3.99741 6.94042 3.99741C 6.12553 3.99741 5.50161 4.19617 5.06573 4.5922C 4.63132 4.98972 4.41266 5.4881 4.41266 6.08734C 4.41266 6.65839 4.65464 7.11821 5.13716 7.46678C 5.61968 7.81535 6.23924 8.0675 6.99727 8.22176C 8.00022 8.44425 8.9361 8.71866 9.80347 9.04201C 10.6708 9.36536 11.4158 9.79106 12.0382 10.3206C 12.6578 10.8471 13.149 11.4879 13.5091 12.2414C 13.8706 12.9979 14.0514 13.8879 14.0514 14.9128C 14.0514 15.8814 13.875 16.7595 13.5237 17.553C 13.1738 18.3451 12.6826 19.0289 12.0513 19.6029C 11.4216 20.1784 10.6679 20.6263 9.79181 20.9452C 8.91424 21.2642 7.96377 21.4229 6.94042 21.4229C 5.93456 21.4229 5.00742 21.2538 4.159 20.9156C 3.31058 20.5774 2.58024 20.1146 1.96944 19.5317C 1.35864 18.9458 0.876119 18.2561 0.526255 17.464C 0.174934 16.6719 2.09091e-06 15.822 2.09091e-06 14.9113Z" transform="translate(37.1745 37.5771)" fill="#F6AE75"/>
<path id="Fill 17" fill-rule="evenodd" clip-rule="evenodd" d="M 4.00011 16.3249C 4.00011 16.5177 4.09486 16.6156 4.28437 16.6156L 7.31653 16.6156C 7.94336 16.6156 8.44192 16.3872 8.81219 15.9348C 9.18247 15.4809 9.3676 14.9588 9.3676 14.3699C 9.3676 13.8003 9.18247 13.2856 8.81219 12.8273C 8.44192 12.3675 7.94336 12.1391 7.31653 12.1391L 4.28437 12.1391C 4.09486 12.1391 4.00011 12.2399 4.00011 12.4431L 4.00011 16.3249ZM 4.00011 7.69224C 4.00011 7.88506 4.09486 7.98147 4.28437 7.98147L 7.31653 7.98147C 7.81945 7.98147 8.26699 7.78865 8.65475 7.403C 9.04398 7.01587 9.23932 6.56643 9.23932 6.05471C 9.23932 5.54446 9.04398 5.09948 8.65475 4.72273C 8.26699 4.34598 7.81945 4.15761 7.31653 4.15761L 4.28437 4.15761C 4.09486 4.15761 4.00011 4.25847 4.00011 4.46167L 4.00011 7.69224ZM 1.02321e-06 20.1784L 1.02321e-06 0.594792C 1.02321e-06 0.439049 0.059771 0.302588 0.179308 0.182444C 0.300302 0.0608156 0.437329 -9.05316e-08 0.590394 -9.05316e-08L 7.54831 -9.05316e-08C 8.3734 -9.05316e-08 9.14164 0.160196 9.85303 0.479099C 10.563 0.798002 11.1781 1.22963 11.6956 1.77547C 12.2146 2.32131 12.6228 2.96357 12.9202 3.70224C 13.2176 4.44091 13.3677 5.22556 13.3677 6.05471C 13.3677 6.71179 13.219 7.39113 12.9231 8.09124C 12.6272 8.78986 12.2554 9.35795 11.8108 9.79255C 11.614 9.98537 11.614 10.1648 11.8108 10.328C 12.0586 10.5505 12.2817 10.8101 12.4799 11.1038C 12.6782 11.3974 12.8502 11.7238 12.996 12.0812C 13.1417 12.4387 13.254 12.8154 13.3327 13.2115C 13.4129 13.606 13.4523 13.9932 13.4523 14.3699C 13.4523 15.3355 13.3138 16.2136 13.0324 17.0057C 12.7525 17.7977 12.3487 18.4726 11.821 19.0274C 11.2933 19.5821 10.6621 20.0123 9.92447 20.3163C 9.18976 20.6204 8.37048 20.7717 7.46813 20.7717L 0.583104 20.7717C 0.432954 20.7717 0.297382 20.7109 0.177845 20.5907C 0.0597662 20.4706 1.02321e-06 20.3327 1.02321e-06 20.1784Z" transform="translate(64.2058 37.8946)" fill="#F6AE75"/>
<path id="Fill 18" fill-rule="evenodd" clip-rule="evenodd" d="M 6.13573 12.3423C 6.12553 12.3897 6.12115 12.4328 6.12115 12.4728C 6.12115 12.6063 6.20716 12.6745 6.37772 12.6745L 9.05418 12.6745C 9.22474 12.6745 9.31075 12.6063 9.31075 12.4728C 9.31075 12.4328 9.30054 12.3897 9.28159 12.3423L 7.88651 5.23001C 7.86756 5.15288 7.81945 5.11432 7.74364 5.11432L 7.6868 5.11432C 7.61245 5.11432 7.56289 5.15288 7.5454 5.23001L 6.13573 12.3423ZM 0.0145805 20.1784L 5.23921 0.449433C 5.29606 0.149812 5.48119 -9.05316e-08 5.79461 -9.05316e-08L 9.69414 -9.05316e-08C 10.0076 -9.05316e-08 10.1927 0.149812 10.2495 0.449433L 15.4465 20.1784C 15.4567 20.217 15.4596 20.2555 15.4596 20.2941C 15.4698 20.3816 15.4363 20.4721 15.3605 20.57C 15.2657 20.7035 15.0995 20.7717 14.8619 20.7717L 11.8021 20.7717C 11.5265 20.7717 11.3414 20.6234 11.2467 20.3238L 10.3356 17.2667C 10.2962 17.151 10.2495 17.0502 10.1927 16.9627C 10.1358 16.8752 10.0367 16.8321 9.89386 16.8321L 5.46662 16.8321C 5.229 16.8321 5.08177 16.9775 5.02491 17.2667L 4.2144 20.3238C 4.15754 20.6234 3.97241 20.7717 3.65899 20.7717L 0.597689 20.7717C 0.360073 20.7717 0.195341 20.7035 0.0991289 20.57C 0.0320717 20.4721 -2.66925e-07 20.3816 -2.66925e-07 20.2941C -2.66925e-07 20.2555 0.00437614 20.217 0.0145805 20.1784Z" transform="translate(80.5372 37.8946)" fill="#F6AE75"/>
<path id="Fill 19" fill-rule="evenodd" clip-rule="evenodd" d="M 4.08466 8.01114C 4.08466 8.20396 4.18087 8.30482 4.37038 8.31521L 7.0031 8.31521C 7.56288 8.31521 8.04249 8.112 8.44191 7.70707C 8.83988 7.30065 9.0396 6.80821 9.0396 6.22973C 9.0396 5.66016 8.83988 5.17216 8.44191 4.76575C 8.04249 4.36081 7.56288 4.15761 7.0031 4.15761L 4.37038 4.15761C 4.18087 4.15761 4.08466 4.25847 4.08466 4.46167L 4.08466 8.01114ZM -3.29207e-06 20.1784L -3.29207e-06 0.594792C -3.29207e-06 0.439049 0.0597675 0.302588 0.177846 0.182444C 0.295925 0.0608156 0.43004 -9.05316e-08 0.583105 -9.05316e-08L 7.0031 -9.05316e-08C 7.8384 -9.05316e-08 8.62851 0.164644 9.37343 0.492446C 10.1183 0.821732 10.7685 1.2682 11.3239 1.83332C 11.8793 2.39845 12.3181 3.05999 12.6403 3.81794C 12.9639 4.5744 13.1243 5.37834 13.1243 6.22973C 13.1243 7.37778 12.8794 8.36267 12.3925 9.18441C 11.9041 10.0061 11.1359 10.773 10.0921 11.4879C 9.8749 11.6422 9.76557 11.789 9.76557 11.9285C 9.76557 12.0694 9.81222 12.2503 9.90698 12.4728L 13.0397 19.8892C 13.1345 20.1102 13.1359 20.3134 13.047 20.4973C 12.9566 20.6812 12.7686 20.7717 12.4843 20.7717L 9.47985 20.7717C 9.24224 20.7717 9.06293 20.7168 8.93902 20.6056C 8.81511 20.4943 8.7116 20.3519 8.62705 20.1784L 5.65175 12.8496C 5.61239 12.7724 5.55554 12.6894 5.47974 12.6033C 5.40539 12.5158 5.29023 12.4728 5.13862 12.4728L 4.37038 12.4728C 4.18087 12.4728 4.08466 12.5692 4.08466 12.762L 4.08466 20.1784C 4.08466 20.3327 4.02489 20.4706 3.90681 20.5907C 3.78873 20.7109 3.65316 20.7717 3.50155 20.7717L 0.583105 20.7717C 0.43004 20.7717 0.295925 20.7109 0.177846 20.5907C 0.0597675 20.4706 -3.29207e-06 20.3327 -3.29207e-06 20.1784Z" transform="translate(99.9998 37.8946)" fill="#F6AE75"/>
<path id="Fill 20" fill-rule="evenodd" clip-rule="evenodd" d="M 3.9149e-06 20.1784L 3.9149e-06 0.594792C 3.9149e-06 0.439049 0.0597636 0.302588 0.177843 0.182444C 0.295922 0.0608156 0.431493 -9.05316e-08 0.583101 -9.05316e-08L 4.05696 -9.05316e-08C 4.27417 -9.05316e-08 4.44181 0.0563626 4.55552 0.167608C 4.66923 0.278853 4.74503 0.401965 4.78293 0.536943L 8.78303 11.8202C 8.82239 11.9181 8.87341 11.9552 8.94047 11.9359C 9.00753 11.9181 9.0396 11.8543 9.0396 11.7475L 9.0396 0.594792C 9.0396 0.439049 9.09937 0.302588 9.21745 0.182444C 9.33553 0.0608156 9.4711 -9.05316e-08 9.62271 -9.05316e-08L 12.5412 -9.05316e-08C 12.6942 -9.05316e-08 12.8298 0.0608156 12.9479 0.182444C 13.0659 0.302588 13.1257 0.439049 13.1257 0.594792L 13.1257 20.1784C 13.1257 20.3327 13.0659 20.4706 12.9479 20.5907C 12.8298 20.7109 12.6942 20.7717 12.5412 20.7717L 9.09645 20.7717C 8.83989 20.7717 8.65475 20.7168 8.54104 20.6056C 8.42733 20.4943 8.35153 20.3816 8.31363 20.2659L 4.34122 9.85039C 4.30332 9.75398 4.2523 9.71541 4.18524 9.7347C 4.11818 9.75398 4.08611 9.81183 4.08611 9.90824L 4.08611 20.1784C 4.08611 20.3327 4.02635 20.4706 3.90681 20.5907C 3.78874 20.7109 3.65462 20.7717 3.50156 20.7717L 0.583101 20.7717C 0.431493 20.7717 0.295922 20.7109 0.177843 20.5907C 0.0597636 20.4706 3.9149e-06 20.3327 3.9149e-06 20.1784Z" transform="translate(117.844 37.8946)" fill="#F6AE75"/>
<path id="Fill 21" fill-rule="evenodd" clip-rule="evenodd" d="M 4.00157 16.3249C 4.00157 16.5177 4.09632 16.6156 4.28583 16.6156L 7.31798 16.6156C 7.94482 16.6156 8.44192 16.3872 8.81219 15.9348C 9.18246 15.4809 9.3676 14.9588 9.3676 14.3699C 9.3676 13.8003 9.18246 13.2856 8.81219 12.8273C 8.44192 12.3675 7.94482 12.1391 7.31798 12.1391L 4.28583 12.1391C 4.09632 12.1391 4.00157 12.2399 4.00157 12.4431L 4.00157 16.3249ZM 4.00157 7.69224C 4.00157 7.88506 4.09632 7.98147 4.28583 7.98147L 7.31798 7.98147C 7.82091 7.98147 8.26698 7.78865 8.6562 7.403C 9.04397 7.01587 9.23931 6.56643 9.23931 6.05471C 9.23931 5.54446 9.04397 5.09948 8.6562 4.72273C 8.26698 4.34598 7.82091 4.15761 7.31798 4.15761L 4.28583 4.15761C 4.09632 4.15761 4.00157 4.25847 4.00157 4.46167L 4.00157 7.69224ZM 1.4236e-06 20.1784L 1.4236e-06 0.594792C 1.4236e-06 0.439049 0.0597714 0.302588 0.179308 0.182444C 0.300303 0.0608156 0.437328 -9.05316e-08 0.591851 -9.05316e-08L 7.54831 -9.05316e-08C 8.37486 -9.05316e-08 9.14311 0.160196 9.85304 0.479099C 10.563 0.798002 11.1781 1.22963 11.6971 1.77547C 12.2146 2.32131 12.6242 2.96357 12.9216 3.70224C 13.219 4.44091 13.3677 5.22556 13.3677 6.05471C 13.3677 6.71179 13.2205 7.39113 12.9245 8.09124C 12.6286 8.78986 12.2569 9.35795 11.8123 9.79255C 11.614 9.98537 11.614 10.1648 11.8123 10.328C 12.0601 10.5505 12.2817 10.8101 12.4814 11.1038C 12.6796 11.3974 12.8517 11.7238 12.996 12.0812C 13.1418 12.4387 13.254 12.8154 13.3342 13.2115C 13.4143 13.606 13.4537 13.9932 13.4537 14.3699C 13.4537 15.3355 13.3138 16.2136 13.0339 17.0057C 12.7525 17.7977 12.3487 18.4726 11.8225 19.0274C 11.2933 19.5821 10.6636 20.0123 9.92592 20.3163C 9.18975 20.6204 8.37195 20.7717 7.46813 20.7717L 0.584567 20.7717C 0.432959 20.7717 0.297388 20.7109 0.177851 20.5907C 0.0597722 20.4706 1.4236e-06 20.3327 1.4236e-06 20.1784Z" transform="translate(136.456 37.8946)" fill="#F6AE75"/>
<path id="Fill 22" fill-rule="evenodd" clip-rule="evenodd" d="M 0.0714356 0.841016C 0.0247871 0.735703 -1.7795e-07 0.633355 -1.7795e-07 0.536943C -1.7795e-07 0.439047 0.0291524 0.348566 0.0860052 0.261053C 0.189507 0.0875109 0.338201 -9.05316e-08 0.52771 -9.05316e-08L 3.745 -9.05316e-08C 4.01906 -9.05316e-08 4.20419 0.149812 4.3004 0.449433L 7.09057 8.66229C 7.12847 8.76019 7.18679 8.81062 7.26843 8.81507C 7.34861 8.81952 7.40691 8.76909 7.44627 8.66229L 10.2364 0.449433C 10.3312 0.149812 10.5163 -9.05316e-08 10.7918 -9.05316e-08L 14.0091 -9.05316e-08C 14.1986 -9.05316e-08 14.3502 0.0875109 14.4639 0.261053C 14.5106 0.338183 14.5354 0.431631 14.5354 0.536943C 14.5354 0.633355 14.5106 0.735703 14.4639 0.841016L 9.31074 14.0658L 9.31074 20.1784C 9.31074 20.3327 9.25098 20.4706 9.1329 20.5907C 9.01482 20.7109 8.87925 20.7717 8.72764 20.7717L 5.80919 20.7717C 5.65613 20.7717 5.52056 20.7109 5.40248 20.5907C 5.2844 20.4706 5.22463 20.3327 5.22463 20.1784L 5.22463 14.0658L 0.0714356 0.841016Z" transform="translate(152.676 37.8946)" fill="#F6AE75"/>
<path id="Fill 23" fill-rule="evenodd" clip-rule="evenodd" d="M 6.13574 12.3423C 6.12554 12.3897 6.12115 12.4328 6.12115 12.4728C 6.12115 12.6063 6.20572 12.6745 6.37773 12.6745L 9.05419 12.6745C 9.22474 12.6745 9.30928 12.6063 9.30928 12.4728C 9.30928 12.4328 9.30054 12.3897 9.28158 12.3423L 7.8865 5.23001C 7.86755 5.15288 7.81946 5.11432 7.74365 5.11432L 7.6868 5.11432C 7.61099 5.11432 7.56288 5.15288 7.54393 5.23001L 6.13574 12.3423ZM 0.013111 20.1784L 5.23774 0.449433C 5.29459 0.149812 5.47975 -9.05316e-08 5.79317 -9.05316e-08L 9.69414 -9.05316e-08C 10.0076 -9.05316e-08 10.1927 0.149812 10.2495 0.449433L 15.445 20.1784C 15.4552 20.217 15.4596 20.2555 15.4596 20.2941C 15.4698 20.3816 15.4363 20.4721 15.3605 20.57C 15.2642 20.7035 15.0995 20.7717 14.8619 20.7717L 11.8006 20.7717C 11.5265 20.7717 11.3414 20.6234 11.2452 20.3238L 10.3341 17.2667C 10.2962 17.151 10.2495 17.0502 10.1927 16.9627C 10.1358 16.8752 10.0352 16.8321 9.89384 16.8321L 5.46663 16.8321C 5.22901 16.8321 5.08177 16.9775 5.02491 17.2667L 4.21295 20.3238C 4.1561 20.6234 3.97094 20.7717 3.65752 20.7717L 0.597676 20.7717C 0.360061 20.7717 0.193882 20.7035 0.0991275 20.57C 0.0320703 20.4721 9.43134e-06 20.3816 9.43134e-06 20.2941C 9.43134e-06 20.2555 0.0043644 20.217 0.013111 20.1784Z" transform="translate(168.147 37.8946)" fill="#F6AE75"/>
<path id="Fill 24" fill-rule="evenodd" clip-rule="evenodd" d="M 4.08612 8.01114C 4.08612 8.20396 4.18087 8.30482 4.37038 8.31521L 7.00457 8.31521C 7.56435 8.31521 8.04394 8.112 8.44191 7.70707C 8.84134 7.30065 9.0396 6.80821 9.0396 6.22973C 9.0396 5.66016 8.84134 5.17216 8.44191 4.76575C 8.04394 4.36081 7.56435 4.15761 7.00457 4.15761L 4.37038 4.15761C 4.18087 4.15761 4.08612 4.25847 4.08612 4.46167L 4.08612 8.01114ZM -3.9149e-06 20.1784L -3.9149e-06 0.594792C -3.9149e-06 0.439049 0.059778 0.302588 0.177857 0.182444C 0.295936 0.0608156 0.431496 -9.05316e-08 0.584561 -9.05316e-08L 7.00457 -9.05316e-08C 7.83987 -9.05316e-08 8.62996 0.164644 9.37488 0.492446C 10.1198 0.821732 10.77 1.2682 11.3254 1.83332C 11.8808 2.39845 12.3181 3.05999 12.6417 3.81794C 12.9654 4.5744 13.1257 5.37834 13.1257 6.22973C 13.1257 7.37778 12.8808 8.36267 12.3925 9.18441C 11.9041 10.0061 11.1373 10.773 10.0936 11.4879C 9.87635 11.6422 9.76557 11.789 9.76557 11.9285C 9.76557 12.0694 9.81367 12.2503 9.90842 12.4728L 13.0412 19.8892C 13.1359 20.1102 13.1374 20.3134 13.047 20.4973C 12.9581 20.6812 12.77 20.7717 12.4858 20.7717L 9.4813 20.7717C 9.24368 20.7717 9.06437 20.7168 8.94046 20.6056C 8.81655 20.4943 8.71306 20.3519 8.62705 20.1784L 5.65175 12.8496C 5.61385 12.7724 5.55701 12.6894 5.48121 12.6033C 5.4054 12.5158 5.29168 12.4728 5.14008 12.4728L 4.37038 12.4728C 4.18087 12.4728 4.08612 12.5692 4.08612 12.762L 4.08612 20.1784C 4.08612 20.3327 4.02634 20.4706 3.90826 20.5907C 3.79018 20.7109 3.65461 20.7717 3.50301 20.7717L 0.584561 20.7717C 0.431496 20.7717 0.295936 20.7109 0.177857 20.5907C 0.059778 20.4706 -3.9149e-06 20.3327 -3.9149e-06 20.1784Z" transform="translate(187.608 37.8946)" fill="#F6AE75"/>
</g>
</g>
</svg>
