<svg width="96" height="30" viewBox="0 0 96 30" version="1.1" xmlns="http://www.w3.org/2000/svg" xmlns:xlink="http://www.w3.org/1999/xlink">
<g id="Canvas" fill="none">
<g id="hedvig-wordmark-color" clip-path="url(#clip0)">
<g id="Hedvig_Wordmark_180313">
<g id="Group">
<g id="Vector">
<path d="M 2.23449 4.5388C 3.46856 4.5388 4.46897 3.52275 4.46897 2.2694C 4.46897 1.01604 3.46856 0 2.23449 0C 1.00041 0 0 1.01604 0 2.2694C 0 3.52275 1.00041 4.5388 2.23449 4.5388Z" transform="translate(73.2623 0)" fill="#0F007A"/>
</g>
</g>
<g id="Group_2">
<g id="Vector_2">
<path d="M 3.21477 0L 0 0L 0 7.67203L 3.21477 7.67203L 3.21477 0Z" transform="translate(12.4843 14.4218)" fill="#0F007A"/>
</g>
</g>
<g id="Group_3">
<g id="Vector_3">
<path d="M 3.21477 0L 0 0L 0 21.9326L 3.21477 21.9326L 3.21477 0Z" transform="translate(48.827 0.146362)" fill="#651FFF"/>
</g>
</g>
<g id="Group_4">
<g id="Vector_4">
<path d="M 3.21478 0L -3.51954e-06 0L -3.51954e-06 15.2123L 3.21478 15.2123L 3.21478 0Z" transform="translate(73.8964 6.80817)" fill="#1DE9B6"/>
</g>
</g>
<g id="Group_5">
<g id="Vector_5">
<path d="M 7.85673 15.959C 3.53192 15.959 0 12.3865 0 7.97949C 0 3.57247 3.53192 0 7.85673 0C 12.1815 0 15.7135 3.57247 15.7135 7.97949C 15.7135 12.3865 12.1815 15.959 7.85673 15.959ZM 7.85673 3.265C 5.30509 3.265 3.21477 5.37334 3.21477 7.97949C 3.21477 10.571 5.29068 12.694 7.85673 12.694C 10.4084 12.694 12.4987 10.5856 12.4987 7.97949C 12.4987 5.37334 10.4084 3.265 7.85673 3.265Z" transform="translate(36.3283 6.44214)" fill="#0F007A"/>
</g>
</g>
<g id="Group_6">
<g id="Vector_6">
<path d="M 15.7135 7.97949L 12.4987 7.97949C 12.4987 5.38798 10.4228 3.265 7.85673 3.265C 5.30509 3.265 3.21477 5.37334 3.21477 7.97949L 3.51953e-06 7.97949C 3.51953e-06 3.58711 3.51751 0 7.85673 0C 12.1815 0 15.7135 3.57247 15.7135 7.97949Z" transform="translate(80.2828 6.44214)" fill="#0F007A"/>
</g>
</g>
<g id="Group_7">
<g id="Vector_7">
<path d="M 15.699 7.97949L 12.4843 7.97949C 12.4843 5.38798 10.4084 3.265 7.84231 3.265C 5.29068 3.265 3.20035 5.37334 3.20035 7.97949L 0 7.97949C 0 3.57247 3.51751 0 7.85673 0C 12.1959 0 15.699 3.57247 15.699 7.97949Z" transform="translate(0 6.44214)" fill="#FF8A80"/>
</g>
</g>
<g id="Group_8">
<g id="Vector_8">
<path d="M 3.21477 0L 0 0L 0 21.9326L 3.21477 21.9326L 3.21477 0Z" transform="translate(0 0.146301)" fill="#0F007A"/>
</g>
</g>
<g id="Group_9">
<g id="Vector_9">
<path d="M 7.85673 15.5929C 3.53193 15.5929 3.51953e-06 12.0205 3.51953e-06 7.61344L 3.21477 7.61344C 3.21477 10.2049 5.29068 12.3279 7.85673 12.3279C 10.4084 12.3279 12.4987 10.2196 12.4987 7.61344L 12.4987 0L 15.7135 0L 15.7135 7.5988C 15.7135 12.0058 12.1815 15.5929 7.85673 15.5929Z" transform="translate(80.2828 6.80817)" fill="#651FFF"/>
</g>
</g>
<g id="Vector_10">
<path d="M -1.75977e-06 0L 6.67461 15.2123L 10.1921 15.2123L 3.51751 0L -1.75977e-06 0Z" transform="translate(54.2474 6.80817)" fill="#FF8A80"/>
</g>
<g id="Vector_11">
<path d="M 6.66019 0L 8.79883e-07 15.2123L 3.5175 15.2123L 10.1921 0L 6.66019 0Z" transform="translate(60.922 6.80817)" fill="#0F007A"/>
</g>
<g id="Group_10">
<g id="Vector_12">
<path d="M 4.5843 7.97949C 2.92646 7.97949 1.3551 7.4524 -3.51954e-06 6.47144L 1.87408 3.82137C 2.66696 4.40702 3.60401 4.71449 4.56988 4.71449C 7.12152 4.71449 9.21185 2.60614 9.21185 -8.93632e-07L 12.4266 -8.93632e-07C 12.441 4.39238 8.90911 7.97949 4.5843 7.97949Z" transform="translate(83.5552 22.0206)" fill="#0F007A"/>
</g>
</g>
<g id="Vector_13">
<path d="M 14.0989 4.46816e-07L 0.172992 4.46816e-07C 0.0576633 0.527086 -4.39943e-07 1.06881 -4.39943e-07 1.63982C -4.39943e-07 2.19619 0.0576633 2.75256 0.172992 3.27964L 14.0989 3.27964L 14.0989 4.46816e-07Z" transform="translate(18.4092 12.7819)" fill="#1DE9B6"/>
</g>
<g id="Vector_14">
<path d="M 7.85672 0C 3.53192 0 -4.39942e-07 3.57247 -4.39942e-07 7.97949C -4.39942e-07 12.3865 3.51751 15.959 7.85672 15.959C 9.22625 15.959 10.5814 15.5929 11.7779 14.8902L 10.1633 12.0644C 9.4569 12.4744 8.64961 12.694 7.84231 12.694C 5.29068 12.694 3.20035 10.5856 3.20035 7.97949C 3.20035 5.38798 5.27626 3.265 7.84231 3.265C 10.3939 3.265 12.4843 5.37334 12.4843 7.97949C 12.4843 8.5505 12.3834 9.09222 12.1959 9.61931L 15.5405 9.61931C 15.6558 9.09222 15.7135 8.53586 15.7135 7.97949C 15.7135 3.57247 12.1815 0 7.85672 0Z" transform="translate(18.4092 6.44214)" fill="#0F007A"/>
</g>
</g>
</g>
</g>
<defs>

<clipPath id="clip0">
<rect width="96" height="30" fill="white"/>
</clipPath>

</defs>
</svg>

