<svg width="26" height="26" viewBox="0 0 26 26" fill="none" xmlns="http://www.w3.org/2000/svg">
<path d="M25.9491 2.4954C24.9904 2.91326 23.9667 3.19793 22.8888 3.32791C23.9873 2.67157 24.8322 1.6371 25.2319 0.40283C24.2017 0.999018 23.06 1.433 21.8445 1.6747C20.8739 0.644528 19.4905 5.53203e-08 17.9544 5.53203e-08C15.0111 5.53203e-08 12.6246 2.36649 12.6246 5.2819C12.6246 5.70085 12.6734 6.10368 12.7622 6.48932C8.33157 6.282 4.40465 4.17224 1.77659 0.982905C1.31403 1.75849 1.05512 2.65975 1.05512 3.64158C1.05512 5.47849 1.99758 7.09303 3.42536 8.04156C2.55114 8.01363 1.72893 7.77515 1.01179 7.37984V7.44537C1.01179 10.0074 2.8458 12.144 5.28645 12.6306C4.83905 12.7498 4.36673 12.8143 3.88251 12.8143C3.54235 12.8143 3.21628 12.7821 2.89021 12.7219C3.57377 14.8198 5.53885 16.3495 7.87767 16.3925C6.05775 17.8094 3.75143 18.6537 1.26745 18.6537C0.844965 18.6537 0.423566 18.629 0 18.5817C2.37132 20.0792 5.16512 20.9547 8.18641 20.9547C17.9945 20.9547 23.3514 12.9024 23.3514 5.93073C23.3514 5.70622 23.3514 5.47956 23.3351 5.25398C24.3762 4.51384 25.285 3.5782 26 2.51688L25.9491 2.4954Z" transform="translate(0 3)" fill="white"/>
</svg>
