<svg width="26" height="26" viewBox="0 0 26 26" fill="none" xmlns="http://www.w3.org/2000/svg">
<path d="M16.653 21H20.9988L21 13.3015C21 9.5233 20.1856 6.62075 15.7824 6.62075C13.6633 6.62075 12.2449 7.78422 11.6616 8.88645H11.6054V6.97469H7.43083V21H11.7766V14.0596C11.7766 12.2299 12.1226 10.4602 14.3884 10.4602C16.62 10.4602 16.653 12.5532 16.653 14.1796V21Z" transform="translate(2 3)" fill="white"/>
<path d="M0 2.52656C0 3.9215 1.12373 5.05558 2.52259 5.05558C3.91534 5.05558 5.04641 3.9215 5.04641 2.52656C5.04641 1.13285 3.91656 0 2.52259 0C1.12496 0 0 1.13285 0 2.52656Z" transform="translate(2 3)" fill="white"/>
<path d="M0.343601 21H4.70158V6.97469H0.343601V21Z" transform="translate(2 3)" fill="white"/>
</svg>
